<svg width="15" height="15" viewBox="0 0 15 15" fill="none" xmlns="http://www.w3.org/2000/svg">
<path fill-rule="evenodd" clip-rule="evenodd" d="M4.92244 9.55281e-05C4.94826 0.000151777 4.97412 0.000198567 5 0.000198567C5.02592 0.000198567 5.05175 0.000151777 5.07758 9.55281e-05C5.38483 -0.000476333 5.68683 -0.00103908 5.95583 0.0800526C6.67483 0.296769 7.23633 0.928507 7.429 1.7373C7.50108 2.03995 7.50058 2.3797 7.50008 2.72537C7.50008 2.75442 7.5 2.78351 7.5 2.81263H14.1667C14.6269 2.81263 15 3.23235 15 3.7501C15 4.26785 14.6269 4.68758 14.1667 4.68758H7.5C7.5 4.7167 7.50008 4.74579 7.50008 4.77484C7.50058 5.12051 7.50108 5.46026 7.429 5.76295C7.23633 6.57171 6.67483 7.20348 5.95583 7.42013C5.68683 7.50122 5.38483 7.50066 5.07758 7.5001C5.05175 7.5001 5.02592 7.5 5 7.5C4.97412 7.5 4.94826 7.5001 4.92243 7.5001C4.61517 7.50066 4.31316 7.50122 4.04413 7.42013C3.32518 7.20348 2.76362 6.57171 2.57099 5.76295C2.4989 5.46025 2.4994 5.12051 2.49992 4.77483C2.49996 4.74579 2.5 4.71669 2.5 4.68758H0.833333C0.3731 4.68758 0 4.26785 0 3.7501C0 3.23235 0.3731 2.81263 0.833333 2.81263H2.5C2.5 2.78351 2.49996 2.75442 2.49992 2.72537C2.4994 2.3797 2.4989 2.03995 2.57099 1.7373C2.76362 0.928507 3.32518 0.296769 4.04413 0.0800526C4.31316 -0.00103908 4.61517 -0.000476333 4.92244 9.55281e-05ZM4.58217 1.88017C4.49329 1.88472 4.47237 1.89206 4.47549 1.89112C4.3317 1.93447 4.21939 2.06081 4.18087 2.22257C4.18017 2.22586 4.17469 2.25466 4.17112 2.34258C4.16687 2.4476 4.16667 2.58617 4.16667 2.81263V4.68758C4.16667 4.91403 4.16687 5.0526 4.17112 5.15762C4.17518 5.25761 4.1817 5.28114 4.18087 5.27764C4.21939 5.43939 4.3317 5.56574 4.47549 5.60908C4.47237 5.60815 4.49329 5.61548 4.58217 5.62004C4.67552 5.62483 4.7987 5.62505 5 5.62505C5.20133 5.62505 5.3245 5.62483 5.41783 5.62004C5.50667 5.61548 5.52758 5.60815 5.5245 5.60908C5.66833 5.56574 5.78058 5.43939 5.81917 5.27764C5.81833 5.28114 5.82483 5.25761 5.82883 5.15762C5.83317 5.0526 5.83333 4.91403 5.83333 4.68758V2.81263C5.83333 2.58617 5.83317 2.4476 5.82883 2.34258C5.82483 2.2426 5.81833 2.21906 5.81917 2.22257M4.58217 1.88017C4.67552 1.87538 4.7987 1.87515 5 1.87515L4.58217 1.88017ZM5 1.87515C5.20133 1.87515 5.3245 1.87538 5.41783 1.88017L5 1.87515ZM5.41783 1.88017C5.496 1.88417 5.52158 1.89033 5.5245 1.89112L5.41783 1.88017ZM9.92242 7.49991C9.94825 7.5 9.97408 7.5 10 7.5C10.0259 7.5 10.0517 7.5 10.0776 7.49991C10.3848 7.49935 10.6868 7.49878 10.9558 7.57987C11.6748 7.79662 12.2363 8.42829 12.429 9.23715C12.5011 9.53976 12.5006 9.87951 12.5001 10.2252C12.5001 10.2542 12.5 10.2833 12.5 10.3124H14.1667C14.6269 10.3124 15 10.7321 15 11.2499C15 11.7677 14.6269 12.1874 14.1667 12.1874H12.5C12.5 12.2165 12.5001 12.2456 12.5001 12.2747C12.5006 12.6203 12.5011 12.9601 12.429 13.2628C12.2363 14.0715 11.6748 14.7033 10.9558 14.9199C10.6868 15.001 10.3848 15.0005 10.0776 14.9999C10.0517 14.9999 10.0259 14.9998 10 14.9998C9.97408 14.9998 9.94825 14.9999 9.92242 14.9999C9.61517 15.0005 9.31317 15.001 9.04417 14.9199C8.32517 14.7033 7.76367 14.0715 7.571 13.2628C7.49892 12.9601 7.49942 12.6203 7.49992 12.2747C7.49992 12.2456 7.5 12.2165 7.5 12.1874H0.833333C0.3731 12.1874 0 11.7677 0 11.2499C0 10.7321 0.3731 10.3124 0.833333 10.3124H7.5C7.5 10.2834 7.49992 10.2542 7.49992 10.2252C7.49942 9.87951 7.49892 9.53976 7.571 9.23715C7.76367 8.42829 8.32517 7.79662 9.04417 7.57987C9.31317 7.49878 9.61517 7.49935 9.92242 7.49991ZM9.58217 9.38002C9.49333 9.38452 9.47242 9.39183 9.4755 9.39089C9.33167 9.4343 9.21942 9.56067 9.18083 9.72238C9.18167 9.71891 9.17517 9.74245 9.17117 9.84238C9.16683 9.94738 9.16667 10.086 9.16667 10.3124V12.1874C9.16667 12.4139 9.16683 12.5524 9.17117 12.6574C9.17517 12.7575 9.18167 12.781 9.18083 12.7774C9.21942 12.9392 9.33167 13.0655 9.4755 13.1089C9.47242 13.108 9.49333 13.1153 9.58217 13.1199C9.6755 13.1247 9.79867 13.1249 10 13.1249C10.2013 13.1249 10.3245 13.1247 10.4178 13.1199C10.5067 13.1153 10.5276 13.108 10.5245 13.1089C10.6683 13.0655 10.7806 12.9392 10.8192 12.7774C10.8183 12.781 10.8248 12.7575 10.8288 12.6574C10.8332 12.5524 10.8333 12.4139 10.8333 12.1874V10.3124C10.8333 10.086 10.8332 9.94738 10.8288 9.84238C10.8248 9.74245 10.8183 9.71891 10.8192 9.72238C10.7806 9.56067 10.6683 9.4343 10.5245 9.39089C10.5276 9.39183 10.5067 9.38452 10.4178 9.38002C10.3245 9.37514 10.2013 9.37495 10 9.37495C9.79867 9.37495 9.6755 9.37514 9.58217 9.38002Z" fill="#009B6A"/>
</svg>
