<svg width="16" height="16" viewBox="0 0 16 16" fill="none" xmlns="http://www.w3.org/2000/svg">
<path d="M0 8C0 3.58172 3.58172 0 8 0V0C12.4183 0 16 3.58172 16 8V8C16 12.4183 12.4183 16 8 16V16C3.58172 16 0 12.4183 0 8V8Z" fill="#009B6A"/>
<path d="M7.46073 12.3226L7.41609 12.2745L4.28752 8.87272C3.7393 8.27683 3.42859 7.44049 3.42859 6.56442V6.49542C3.42859 5.02346 4.32145 3.76058 5.55716 3.48459C6.26073 3.32568 6.98037 3.51595 7.55359 3.98849C7.7143 4.1223 7.8643 4.27702 8.00002 4.45475C8.07502 4.35438 8.15537 4.26239 8.24109 4.17666C8.30716 4.10975 8.37502 4.04703 8.44645 3.98849C9.01966 3.51595 9.7393 3.32568 10.4429 3.4825C11.6786 3.75849 12.5714 5.02346 12.5714 6.49542V6.56442C12.5714 7.44049 12.2607 8.27683 11.7125 8.87272L8.58395 12.2745L8.5393 12.3226C8.39288 12.4815 8.20002 12.5714 8.00002 12.5714C7.80002 12.5714 7.60716 12.4836 7.46073 12.3226ZM7.69823 5.56499C7.69109 5.55872 7.68573 5.55035 7.68038 5.54199L7.36252 5.12382L7.36073 5.12173C6.94823 4.5802 6.32502 4.33348 5.71787 4.46938C4.88573 4.65547 4.28573 5.50436 4.28573 6.49542V6.56442C4.28573 7.16031 4.49823 7.73112 4.87145 8.13674L8.00002 11.5386L11.1286 8.13674C11.5018 7.73112 11.7143 7.16031 11.7143 6.56442V6.49542C11.7143 5.50645 11.1143 4.65547 10.2839 4.46938C9.6768 4.33348 9.0518 4.58229 8.64109 5.12173C8.64109 5.12173 8.64109 5.12173 8.6393 5.12382C8.63752 5.12591 8.6393 5.12382 8.63752 5.12591L8.31966 5.54408C8.3143 5.55244 8.30716 5.55872 8.3018 5.56708C8.22145 5.66117 8.11252 5.71344 8.00002 5.71344C7.88752 5.71344 7.77859 5.66117 7.69823 5.56708V5.56499Z" fill="white"/>
</svg>
