<svg width="23" height="22" viewBox="0 0 23 22" fill="none" xmlns="http://www.w3.org/2000/svg">
<path d="M7.62129 15.3817C8.77269 15.3817 9.70684 16.2375 9.70684 17.2923V17.9292L12.8569 15.7638C13.2175 15.517 13.6563 15.3817 14.1082 15.3817H20.1345C20.5169 15.3817 20.8297 15.0951 20.8297 14.7448V3.28113C20.8297 2.93085 20.5169 2.64425 20.1345 2.64425H3.45021C3.06787 2.64425 2.75503 2.93085 2.75503 3.28113V14.7448C2.75503 15.0951 3.06787 15.3817 3.45021 15.3817H7.62129ZM9.70684 20.3174L9.69815 20.3254L9.47656 20.4766L8.73358 20.9861C8.52503 21.1294 8.24261 21.1533 8.00364 21.0458C7.76468 20.9384 7.62129 20.7194 7.62129 20.4766V19.6288V19.3741V19.3621V19.2029V17.2923H5.53576H3.45021C1.91647 17.2923 0.669495 16.1499 0.669495 14.7448V3.28113C0.669495 1.87603 1.91647 0.733643 3.45021 0.733643H20.1345C21.6683 0.733643 22.9153 1.87603 22.9153 3.28113V14.7448C22.9153 16.1499 21.6683 17.2923 20.1345 17.2923H14.1082L9.70684 20.3174Z" fill="black"/>
</svg>
