<svg width="23" height="21" viewBox="0 0 23 21" fill="none" xmlns="http://www.w3.org/2000/svg">
<path d="M6.95186 14.6481C8.10325 14.6481 9.0374 15.5039 9.0374 16.5588V17.1956L12.1874 15.0303C12.5481 14.7835 12.9869 14.6481 13.4388 14.6481H19.4651C19.8475 14.6481 20.1603 14.3616 20.1603 14.0113V2.54761C20.1603 2.19733 19.8475 1.91073 19.4651 1.91073H2.78078C2.39843 1.91073 2.0856 2.19733 2.0856 2.54761V14.0113C2.0856 14.3616 2.39843 14.6481 2.78078 14.6481H6.95186ZM9.0374 19.5839L9.02871 19.5919L8.80712 19.7431L8.06415 20.2526C7.8556 20.3959 7.57318 20.4198 7.33421 20.3123C7.09524 20.2048 6.95186 19.9859 6.95186 19.7431V18.8953V18.6405V18.6286V18.4694V16.5588H4.86632H2.78078C1.24704 16.5588 6.10352e-05 15.4164 6.10352e-05 14.0113V2.54761C6.10352e-05 1.14251 1.24704 0.00012207 2.78078 0.00012207H19.4651C20.9988 0.00012207 22.2458 1.14251 22.2458 2.54761V14.0113C22.2458 15.4164 20.9988 16.5588 19.4651 16.5588H13.4388L9.0374 19.5839Z" fill="#009B6A"/>
<path d="M2 1.00012H21V15.0001L12.5 15.5001L9 17.5001L8.5 15.5001L2 15.0001V1.00012Z" fill="#009B6A"/>
<line x1="3" y1="5.00012" x2="14.5678" y2="5.00012" stroke="white" stroke-width="2"/>
<path d="M3 8.00599L17.2367 8.01103" stroke="white" stroke-width="2"/>
<line x1="3" y1="11.009" x2="12.7881" y2="11.009" stroke="white" stroke-width="2"/>
</svg>
