<svg width="24" height="21" viewBox="0 0 24 21" fill="none" xmlns="http://www.w3.org/2000/svg">
<path d="M19.0501 8.26551C19.0501 10.0895 18.4027 11.7744 17.3121 13.1414L22.813 18.1762C23.3561 18.6729 23.3561 19.4796 22.813 19.9763C22.2699 20.473 21.3878 20.473 20.8447 19.9763L15.3438 14.9415C13.8491 15.9429 12.0068 16.531 10.0124 16.531C5.01986 16.531 0.974579 12.8314 0.974579 8.26551C0.974579 3.69961 5.01986 0 10.0124 0C15.0049 0 19.0501 3.69961 19.0501 8.26551ZM10.0124 13.9878C10.834 13.9878 11.6477 13.8398 12.4068 13.5522C13.1659 13.2646 13.8557 12.8431 14.4367 12.3118C15.0177 11.7804 15.4786 11.1496 15.793 10.4553C16.1074 9.76107 16.2693 9.01696 16.2693 8.26551C16.2693 7.51405 16.1074 6.76994 15.793 6.07569C15.4786 5.38143 15.0177 4.75061 14.4367 4.21925C13.8557 3.68789 13.1659 3.26639 12.4068 2.97881C11.6477 2.69124 10.834 2.54323 10.0124 2.54323C9.19069 2.54323 8.37706 2.69124 7.61794 2.97881C6.85881 3.26639 6.16905 3.68789 5.58805 4.21925C5.00704 4.75061 4.54615 5.38143 4.23171 6.07569C3.91727 6.76994 3.75543 7.51405 3.75543 8.26551C3.75543 9.01696 3.91727 9.76107 4.23171 10.4553C4.54615 11.1496 5.00704 11.7804 5.58805 12.3118C6.16905 12.8431 6.85881 13.2646 7.61794 13.5522C8.37706 13.8398 9.19069 13.9878 10.0124 13.9878Z" fill="black"/>
</svg>
