<svg width="13" height="12" viewBox="0 0 13 12" fill="none" xmlns="http://www.w3.org/2000/svg">
<path d="M5.56229 0.756231C5.7419 0.203445 6.52395 0.203444 6.70356 0.75623L7.68207 3.76778C7.7624 4.015 7.99277 4.18237 8.2527 4.18237H11.4192C12.0005 4.18237 12.2421 4.92614 11.7719 5.26778L9.21013 7.12902C8.99984 7.28181 8.91184 7.55263 8.99217 7.79984L9.97068 10.8114C10.1503 11.3642 9.5176 11.8239 9.04738 11.4822L6.4856 9.62098C6.2753 9.46819 5.99055 9.46819 5.78025 9.62098L3.21847 11.4822C2.74825 11.8239 2.11556 11.3642 2.29517 10.8114L3.27368 7.79984C3.35401 7.55263 3.26601 7.28181 3.05572 7.12902L0.49394 5.26778C0.0237115 4.92614 0.265376 4.18237 0.84661 4.18237H4.01314C4.27308 4.18237 4.50345 4.015 4.58378 3.76778L5.56229 0.756231Z" fill="#009B6A"/>
</svg>
