<svg width="24" height="22" viewBox="0 0 24 22" fill="none" xmlns="http://www.w3.org/2000/svg">
<path d="M11.7819 10.6994C11.704 10.6892 11.6039 10.6892 11.5149 10.6994C9.5573 10.6383 8.00006 9.17102 8.00006 7.36747C8.00006 5.52318 9.62404 4.02533 11.6484 4.02533C13.6616 4.02533 15.2967 5.52318 15.2967 7.36747C15.2856 9.17102 13.7395 10.6383 11.7819 10.6994Z" stroke="black" stroke-width="2" stroke-linecap="round" stroke-linejoin="round"/>
<path d="M19.1039 17.5719C17.2415 19.0311 14.7723 19.9174 12.052 19.9174C9.33165 19.9174 6.86244 19.0311 5.00006 17.5719C5.10469 16.7303 5.73246 15.9067 6.85197 15.2621C9.71877 13.6328 14.4061 13.6328 17.252 15.2621C18.3715 15.9067 18.9992 16.7303 19.1039 17.5719Z" stroke="black" stroke-width="2" stroke-linecap="round" stroke-linejoin="round"/>
<path d="M11.678 20.5846C17.5753 20.5846 22.356 16.2051 22.356 10.8027C22.356 5.40032 17.5753 1.02081 11.678 1.02081C5.78075 1.02081 1.00006 5.40032 1.00006 10.8027C1.00006 16.2051 5.78075 20.5846 11.678 20.5846Z" stroke="black" stroke-width="2" stroke-linecap="round" stroke-linejoin="round"/>
</svg>
