<svg width="24" height="23" viewBox="0 0 24 23" fill="none" xmlns="http://www.w3.org/2000/svg">
<path d="M11.7818 11.5971C11.704 11.5869 11.6038 11.5869 11.5149 11.5971C9.55724 11.5359 8 10.0687 8 8.26511C8 6.42082 9.62397 4.92297 11.6483 4.92297C13.6616 4.92297 15.2966 6.42082 15.2966 8.26511C15.2855 10.0687 13.7394 11.5359 11.7818 11.5971Z" fill="#009B6A" stroke="#009B6A" stroke-width="2" stroke-linecap="round" stroke-linejoin="round"/>
<path d="M19.1038 18.4695C17.2414 19.9287 14.7722 20.815 12.0519 20.815C9.33159 20.815 6.86237 19.9287 5 18.4695C5.10463 17.628 5.73239 16.8043 6.85191 16.1598C9.71871 14.5304 14.406 14.5304 17.2519 16.1598C18.3714 16.8043 18.9992 17.628 19.1038 18.4695Z" fill="#009B6A" stroke="#009B6A" stroke-width="2" stroke-linecap="round" stroke-linejoin="round"/>
<path d="M11.678 21.4823C17.5752 21.4823 22.3559 17.1027 22.3559 11.7004C22.3559 6.29797 17.5752 1.91846 11.678 1.91846C5.78069 1.91846 1 6.29797 1 11.7004C1 17.1027 5.78069 21.4823 11.678 21.4823Z" stroke="#009B6A" stroke-width="2" stroke-linecap="round" stroke-linejoin="round"/>
</svg>
