<svg width="23" height="21" viewBox="0 0 23 21" fill="none" xmlns="http://www.w3.org/2000/svg">
<path d="M12.7321 4.58426C12.7321 3.94395 12.1815 3.42664 11.5001 3.42664C10.8186 3.42664 10.268 3.94395 10.268 4.58426V9.79356H4.72365C4.04216 9.79356 3.49158 10.3109 3.49158 10.9512C3.49158 11.5915 4.04216 12.1088 4.72365 12.1088H10.268V17.3181C10.268 17.9584 10.8186 18.4757 11.5001 18.4757C12.1815 18.4757 12.7321 17.9584 12.7321 17.3181V12.1088H18.2765C18.9579 12.1088 19.5085 11.5915 19.5085 10.9512C19.5085 10.3109 18.9579 9.79356 18.2765 9.79356H12.7321V4.58426Z" fill="black"/>
<rect x="1.82202" y="1.91846" width="19.3559" height="18.0655" rx="1" stroke="black" stroke-width="2"/>
</svg>
