<svg width="24" height="23" viewBox="0 0 24 23" fill="none" xmlns="http://www.w3.org/2000/svg">
<path d="M12.3618 1.38331C11.785 0.883802 10.8321 0.903072 10.284 1.42533L1.48876 9.80535C1.25581 10.0272 1.12704 10.3144 1.12704 10.612V19.8393C1.12704 20.5082 1.76447 21.0504 2.55077 21.0504H6.82194C7.60824 21.0504 8.24566 20.5082 8.24566 19.8393V15.6002C8.24566 14.9313 8.88309 14.389 9.66939 14.389H13.9406C14.7269 14.389 15.3643 14.9313 15.3643 15.6002V19.8393C15.3643 20.5082 16.0017 21.0504 16.788 21.0504H21.0592C21.8455 21.0504 22.4829 20.5082 22.4829 19.8393V10.6453C22.4829 10.3278 22.3364 10.0231 22.0749 9.79663L12.3618 1.38331Z" stroke="black" stroke-width="2"/>
</svg>
