<svg width="24" height="21" viewBox="0 0 24 21" fill="none" xmlns="http://www.w3.org/2000/svg">
<path d="M19.0501 8.27775C19.0501 10.1044 18.4027 11.7918 17.3121 13.1608L22.813 18.2031C23.3561 18.7006 23.3561 19.5084 22.813 20.0059C22.2698 20.5034 21.3878 20.5034 20.8446 20.0059L15.3438 14.9636C13.849 15.9665 12.0067 16.5555 10.0123 16.5555C5.01982 16.5555 0.974548 12.8504 0.974548 8.27775C0.974548 3.70509 5.01982 0 10.0123 0C15.0048 0 19.0501 3.70509 19.0501 8.27775ZM10.0123 14.0085C10.834 14.0085 11.6476 13.8603 12.4068 13.5723C13.1659 13.2843 13.8556 12.8622 14.4366 12.33C15.0177 11.7979 15.4785 11.1661 15.793 10.4708C16.1074 9.77553 16.2693 9.03032 16.2693 8.27775C16.2693 7.52518 16.1074 6.77997 15.793 6.08469C15.4785 5.3894 15.0177 4.75765 14.4366 4.2255C13.8556 3.69335 13.1659 3.27122 12.4068 2.98323C11.6476 2.69523 10.834 2.547 10.0123 2.547C9.19066 2.547 8.37703 2.69523 7.61791 2.98323C6.85878 3.27122 6.16902 3.69335 5.58802 4.2255C5.00701 4.75765 4.54612 5.3894 4.23168 6.08469C3.91724 6.77997 3.7554 7.52518 3.7554 8.27775C3.7554 9.03032 3.91724 9.77553 4.23168 10.4708C4.54612 11.1661 5.00701 11.7979 5.58802 12.33C6.16902 12.8622 6.85878 13.2843 7.61791 13.5723C8.37703 13.8603 9.19066 14.0085 10.0123 14.0085Z" fill="#009B6A"/>
<path d="M5.41098 7.93938C5.65119 5.69891 7.54197 4 9.79529 4H10.5168C12.7989 4 14.6841 5.78157 14.8131 8.06004C14.9233 10.0078 13.7094 11.786 11.8552 12.3928L11.2058 12.6054C10.4177 12.8633 9.56729 12.8938 8.76199 12.6961C6.61786 12.1698 5.17563 10.1346 5.41098 7.93938Z" fill="#009B6A"/>
</svg>
